<svg width="25" height="25" viewBox="0 0 25 25" fill="none" xmlns="http://www.w3.org/2000/svg">
  <path fill-rule="evenodd" clip-rule="evenodd" d="M12.5 2.64844C6.97715 2.64844 2.5 7.12559 2.5 12.6484C2.5 17.0684 5.365 20.8174 9.339 22.1414C9.839 22.2334 10.022 21.9244 10.022 21.6594C10.022 21.4214 10.013 20.7924 10.008 19.9574C7.225 20.5624 6.638 18.6164 6.638 18.6164C6.183 17.4604 5.527 17.1524 5.527 17.1524C4.619 16.5314 5.596 16.5444 5.596 16.5444C6.6 16.6154 7.128 17.5754 7.128 17.5754C8.02 19.1044 9.468 18.6634 10.038 18.4074C10.129 17.7614 10.387 17.3204 10.673 17.0704C8.451 16.8174 6.115 15.9594 6.115 12.1264C6.115 11.0344 6.505 10.1404 7.145 9.43944C7.042 9.18644 6.699 8.16844 7.243 6.79044C7.243 6.79044 8.083 6.52144 9.993 7.81744C10.791 7.59544 11.647 7.48444 12.5 7.48044C13.353 7.48444 14.209 7.59544 15.008 7.81744C16.917 6.52144 17.756 6.79044 17.756 6.79044C18.301 8.16844 17.958 9.18644 17.855 9.43944C18.497 10.1404 18.884 11.0344 18.884 12.1264C18.884 15.9694 16.544 16.8144 14.315 17.0614C14.674 17.3704 14.994 17.9814 14.994 18.9154C14.994 20.2534 14.982 21.3334 14.982 21.6594C14.982 21.9274 15.162 22.2384 15.67 22.1404C19.638 20.8124 22.5 17.0664 22.5 12.6484C22.5 7.12559 18.0228 2.64844 12.5 2.64844Z" fill="#212529"/>
</svg>
